<?xml version="1.0" encoding="utf-8"?>
<!-- Generator: Adobe Illustrator 25.0.0, SVG Export Plug-In . SVG Version: 6.00 Build 0)  -->
<svg version="1.1" id="Calque_1" xmlns="http://www.w3.org/2000/svg" xmlns:xlink="http://www.w3.org/1999/xlink" x="0px" y="0px"
	 viewBox="0 0 285.9 56.7" style="enable-background:new 0 0 285.9 56.7;" xml:space="preserve">
<style type="text/css">
	.st0{fill:#B2CD3A;}
	.st1{fill:#76BC21;}
	.st2{enable-background:new    ;}
	.st3{fill:#2C3D91;}
</style>
<g id="Calque_2_1_">
	<g id="Calque_1-2">
		<polygon class="st0" points="24,29 0,42.9 24,56.7 47.9,42.9 		"/>
		<polygon class="st0" points="24.9,27.5 48.8,41.2 48.8,13.8 24.9,0 		"/>
		<polygon class="st1" points="75.4,29 51.4,42.9 75.4,56.7 99.4,42.9 		"/>
		<polygon class="st1" points="74.5,27.5 74.5,0 50.6,13.8 50.6,41.2 		"/>
		<g class="st2">
			<path class="st3" d="M116.2,24.5v12.9h2.8v4.7h-10.5v-4.7h2.8V24.5h-2.8v-4.7H119v4.7H116.2z"/>
		</g>
		<g class="st2">
			<path class="st3" d="M137.3,24.5h-5.5v17.6h-5V24.5h-5.5v-4.7h16.1V24.5z"/>
		</g>
		<g class="st2">
			<path class="st3" d="M155.3,25.6v16.5h-14.6V25.6h1.9v14.7h10.9V25.6H155.3z"/>
			<path class="st3" d="M175.6,42.1h-1.9V27.4h-11.5v14.7h-1.9V25.6h15.2V42.1z"/>
			<path class="st3" d="M180.3,20.4c0-0.7,0.6-1.3,1.4-1.3c0.8,0,1.4,0.6,1.4,1.3c0,0.8-0.6,1.4-1.4,1.4
				C180.9,21.7,180.3,21.2,180.3,20.4z M180.8,25.6h1.9v16.5h-1.9V25.6z"/>
		</g>
		<g class="st2">
			<path class="st3" d="M202.9,25.6l-7.5,16.5h-2l-7.5-16.5h2.2l6.4,14.3l6.4-14.3H202.9z"/>
		</g>
		<g class="st2">
			<path class="st3" d="M221.5,34.7h-15.4c0.4,3.6,3.1,6.1,6.7,6.1c3,0,5.4-1.6,6.3-4h2.1c-1.2,3.4-4.4,5.8-8.4,5.8
				c-5,0-8.7-3.7-8.7-8.6c0-4.9,3.8-8.6,8.7-8.6c5,0,8.7,3.7,8.7,8.6C221.6,34.1,221.6,34.4,221.5,34.7z M206.2,33h13.5
				c-0.4-3.5-3.2-6-6.8-6C209.3,27,206.6,29.5,206.2,33z"/>
		</g>
		<g class="st2">
			<path class="st3" d="M233.3,27.5h-5.8v14.7h-1.9V25.6h7.7V27.5z"/>
		</g>
		<g class="st2">
			<path class="st3" d="M235.5,37.6h1.9c0,1.8,1.5,3.2,3.4,3.2c1.9,0,3.3-1.2,3.3-2.8c0-1.7-1.3-2.8-3.8-3.4
				c-2.8-0.7-4.7-2.1-4.7-4.8s2.3-4.5,5.1-4.5c2.9,0,5.1,2.1,5.1,4.7H244c0-1.7-1.4-3-3.2-3c-1.8,0-3.1,1.2-3.1,2.7
				c0,1.6,1.3,2.7,3.7,3.3c3,0.7,4.8,2.3,4.8,4.9c0,2.8-2.3,4.7-5.3,4.7C237.8,42.5,235.5,40.4,235.5,37.6z"/>
			<path class="st3" d="M249.8,20.4c0-0.7,0.6-1.3,1.4-1.3c0.8,0,1.4,0.6,1.4,1.3c0,0.8-0.6,1.4-1.4,1.4
				C250.4,21.7,249.8,21.2,249.8,20.4z M250.2,25.6h1.9v16.5h-1.9V25.6z"/>
		</g>
		<g class="st2">
			<path class="st3" d="M261.1,27.3v13h5v1.7h-6.8V27.3h-3.4v-1.7h3.4v-4.9h1.9v4.9h5v1.7H261.1z"/>
		</g>
		<g class="st2">
			<path class="st3" d="M285.2,25.6l-10.3,22.7h-4.7v-1.7h3.4l2.1-4.4l-7.5-16.5h2.2l6.4,14.3l6.4-14.3H285.2z"/>
		</g>
	</g>
</g>
</svg>
